<?xml version="1.0" encoding="UTF-8" standalone="no"?><!-- Generator: Gravit.io --><svg xmlns="http://www.w3.org/2000/svg" xmlns:xlink="http://www.w3.org/1999/xlink" style="isolation:isolate" viewBox="0 0 104 20" width="104pt" height="20pt"><defs><clipPath id="_clipPath_W7QVzpEEBCuq7k9p7TbraFGrpbnnlisd"><rect width="104" height="20"/></clipPath></defs><g clip-path="url(#_clipPath_W7QVzpEEBCuq7k9p7TbraFGrpbnnlisd)"><path d=" M 28.153 15.541 L 34.979 15.541 L 34.979 18.124 L 24.938 18.124 L 24.938 2.519 L 28.153 2.519 L 28.153 15.541 Z " fill="rgb(255,255,255)"/><path d=" M 43.652 18.124 C 43.509 17.845 43.406 17.499 43.341 17.084 C 42.591 17.921 41.616 18.338 40.415 18.338 C 39.279 18.338 38.336 18.009 37.586 17.352 C 36.843 16.695 36.471 15.866 36.471 14.866 C 36.471 13.637 36.925 12.694 37.832 12.036 C 38.747 11.379 40.065 11.047 41.787 11.04 L 43.212 11.04 L 43.212 10.375 C 43.212 9.839 43.073 9.411 42.795 9.089 C 42.523 8.767 42.091 8.607 41.498 8.607 C 40.976 8.607 40.565 8.732 40.266 8.982 C 39.972 9.232 39.826 9.575 39.826 10.011 L 36.728 10.011 C 36.728 9.339 36.936 8.718 37.35 8.145 C 37.765 7.574 38.351 7.128 39.108 6.806 C 39.865 6.477 40.716 6.313 41.659 6.313 C 43.087 6.313 44.22 6.674 45.056 7.396 C 45.899 8.11 46.321 9.117 46.321 10.418 L 46.321 15.445 C 46.328 16.545 46.481 17.377 46.782 17.942 L 46.782 18.124 L 43.652 18.124 Z  M 41.091 15.969 C 41.548 15.969 41.97 15.869 42.355 15.67 C 42.741 15.462 43.027 15.188 43.212 14.845 L 43.212 12.851 L 42.056 12.851 C 40.505 12.851 39.68 13.387 39.58 14.458 L 39.568 14.641 C 39.568 15.026 39.705 15.345 39.976 15.595 C 40.247 15.844 40.619 15.969 41.091 15.969 Z " fill="rgb(255,255,255)"/><path d=" M 51.906 6.527 L 52.003 7.824 C 52.824 6.817 53.936 6.313 55.336 6.313 C 56.83 6.313 57.855 6.903 58.412 8.081 C 59.227 6.903 60.388 6.313 61.895 6.313 C 63.153 6.313 64.089 6.681 64.703 7.417 C 65.318 8.145 65.625 9.246 65.625 10.718 L 65.625 18.124 L 62.517 18.124 L 62.517 10.729 C 62.517 10.072 62.389 9.592 62.132 9.293 C 61.874 8.985 61.42 8.831 60.77 8.831 C 59.842 8.831 59.198 9.274 58.841 10.161 L 58.851 18.124 L 55.755 18.124 L 55.755 10.739 C 55.755 10.068 55.622 9.582 55.358 9.282 C 55.093 8.982 54.643 8.831 54.007 8.831 C 53.128 8.831 52.493 9.196 52.099 9.925 L 52.099 18.124 L 49.002 18.124 L 49.002 6.527 L 51.906 6.527 Z " fill="rgb(255,255,255)"/><path d=" M 67.835 12.24 C 67.835 10.432 68.239 8.992 69.046 7.92 C 69.86 6.849 70.972 6.313 72.379 6.313 C 73.508 6.313 74.44 6.734 75.177 7.577 L 75.177 1.662 L 78.285 1.662 L 78.285 18.124 L 75.488 18.124 L 75.337 16.892 C 74.565 17.856 73.573 18.338 72.358 18.338 C 70.993 18.338 69.896 17.803 69.067 16.731 C 68.246 15.651 67.835 14.155 67.835 12.24 Z  M 70.933 12.465 C 70.933 13.551 71.122 14.384 71.501 14.962 C 71.879 15.541 72.429 15.83 73.151 15.83 C 74.108 15.83 74.783 15.427 75.177 14.619 L 75.177 10.043 C 74.79 9.235 74.122 8.831 73.172 8.831 C 71.679 8.831 70.933 10.043 70.933 12.465 Z " fill="rgb(255,255,255)"/><path d=" M 86.325 18.338 C 84.624 18.338 83.238 17.817 82.166 16.774 C 81.101 15.73 80.569 14.341 80.569 12.604 L 80.569 12.304 C 80.569 11.14 80.794 10.1 81.245 9.186 C 81.694 8.264 82.33 7.557 83.153 7.063 C 83.981 6.563 84.924 6.313 85.982 6.313 C 87.568 6.313 88.815 6.813 89.722 7.814 C 90.637 8.814 91.094 10.232 91.094 12.068 L 91.094 13.334 L 83.709 13.334 C 83.809 14.091 84.11 14.698 84.61 15.156 C 85.117 15.612 85.756 15.841 86.528 15.841 C 87.721 15.841 88.654 15.409 89.326 14.544 L 90.847 16.248 C 90.383 16.906 89.755 17.421 88.961 17.791 C 88.168 18.156 87.289 18.338 86.325 18.338 Z  M 85.971 8.821 C 85.357 8.821 84.856 9.028 84.47 9.443 C 84.091 9.857 83.849 10.45 83.741 11.221 L 88.05 11.221 L 88.05 10.975 C 88.036 10.29 87.85 9.761 87.493 9.389 C 87.135 9.01 86.628 8.821 85.971 8.821 Z " fill="rgb(255,255,255)"/><path d=" M 96.015 6.527 L 96.112 7.868 C 96.94 6.831 98.052 6.313 99.445 6.313 C 100.674 6.313 101.588 6.674 102.188 7.396 C 102.789 8.117 103.096 9.196 103.111 10.633 L 103.111 18.124 L 100.013 18.124 L 100.013 10.707 C 100.013 10.05 99.87 9.575 99.585 9.282 C 99.298 8.982 98.823 8.831 98.159 8.831 C 97.287 8.831 96.634 9.203 96.198 9.947 L 96.198 18.124 L 93.1 18.124 L 93.1 6.527 L 96.015 6.527 Z " fill="rgb(255,255,255)"/><path d=" M 10 4.887 L 4.887 10 L 10 15.113 L 15.113 10 L 10 4.887 Z  M 0 10 L 10 20 L 20 10 L 10 0 L 0 10 Z " fill-rule="evenodd" fill="rgb(255,255,255)"/></g></svg>