<?xml version="1.0" encoding="UTF-8" standalone="no"?><!-- Generator: Gravit.io --><svg xmlns="http://www.w3.org/2000/svg" xmlns:xlink="http://www.w3.org/1999/xlink" style="isolation:isolate" viewBox="1.226 1 117.548 20" width="117.548pt" height="20pt"><g><path d=" M 32.462 16.982 L 40.323 16.982 L 40.323 19.956 L 28.76 19.956 L 28.76 1.987 L 32.462 1.987 L 32.462 16.982 Z " fill="rgb(255,255,255)"/><path d=" M 50.309 19.956 C 50.145 19.635 50.026 19.236 49.951 18.759 C 49.088 19.722 47.965 20.203 46.582 20.203 C 45.274 20.203 44.188 19.824 43.324 19.067 C 42.469 18.311 42.041 17.356 42.041 16.204 C 42.041 14.789 42.563 13.703 43.608 12.946 C 44.661 12.189 46.179 11.807 48.162 11.799 L 49.803 11.799 L 49.803 11.033 C 49.803 10.416 49.643 9.923 49.322 9.552 C 49.009 9.182 48.512 8.997 47.829 8.997 C 47.228 8.997 46.755 9.141 46.41 9.429 C 46.072 9.717 45.904 10.112 45.904 10.614 L 42.337 10.614 C 42.337 9.84 42.576 9.125 43.053 8.466 C 43.53 7.808 44.205 7.294 45.077 6.924 C 45.949 6.545 46.928 6.356 48.014 6.356 C 49.659 6.356 50.963 6.772 51.926 7.603 C 52.897 8.425 53.382 9.585 53.382 11.083 L 53.382 16.871 C 53.391 18.138 53.567 19.096 53.913 19.746 L 53.913 19.956 L 50.309 19.956 Z  M 47.36 17.475 C 47.886 17.475 48.372 17.36 48.816 17.13 C 49.26 16.891 49.589 16.575 49.803 16.18 L 49.803 13.884 L 48.471 13.884 C 46.685 13.884 45.735 14.501 45.62 15.735 L 45.607 15.945 C 45.607 16.389 45.764 16.756 46.076 17.044 C 46.389 17.331 46.817 17.475 47.36 17.475 Z " fill="rgb(255,255,255)"/><path d=" M 59.814 6.603 L 59.925 8.096 C 60.871 6.936 62.151 6.356 63.763 6.356 C 65.483 6.356 66.663 7.035 67.305 8.392 C 68.243 7.035 69.58 6.356 71.316 6.356 C 72.764 6.356 73.842 6.78 74.549 7.627 C 75.257 8.466 75.611 9.733 75.611 11.428 L 75.611 19.956 L 72.032 19.956 L 72.032 11.441 C 72.032 10.684 71.884 10.132 71.588 9.787 C 71.291 9.433 70.769 9.256 70.02 9.256 C 68.951 9.256 68.21 9.766 67.799 10.787 L 67.811 19.956 L 64.245 19.956 L 64.245 11.453 C 64.245 10.68 64.092 10.12 63.788 9.775 C 63.483 9.429 62.965 9.256 62.233 9.256 C 61.221 9.256 60.489 9.676 60.036 10.515 L 60.036 19.956 L 56.47 19.956 L 56.47 6.603 L 59.814 6.603 Z " fill="rgb(255,255,255)"/><path d=" M 78.155 13.181 C 78.155 11.099 78.62 9.441 79.55 8.207 C 80.487 6.973 81.767 6.356 83.388 6.356 C 84.688 6.356 85.761 6.841 86.609 7.812 L 86.609 1 L 90.188 1 L 90.188 19.956 L 86.967 19.956 L 86.794 18.537 C 85.905 19.647 84.762 20.203 83.363 20.203 C 81.792 20.203 80.529 19.586 79.574 18.352 C 78.628 17.109 78.155 15.386 78.155 13.181 Z  M 81.722 13.44 C 81.722 14.69 81.94 15.649 82.376 16.315 C 82.812 16.982 83.445 17.315 84.276 17.315 C 85.379 17.315 86.156 16.85 86.609 15.92 L 86.609 10.651 C 86.164 9.721 85.395 9.256 84.301 9.256 C 82.581 9.256 81.722 10.651 81.722 13.44 Z " fill="rgb(255,255,255)"/><path d=" M 99.446 20.203 C 97.487 20.203 95.891 19.602 94.657 18.401 C 93.431 17.2 92.818 15.6 92.818 13.6 L 92.818 13.255 C 92.818 11.914 93.077 10.717 93.596 9.664 C 94.114 8.602 94.846 7.788 95.793 7.22 C 96.747 6.644 97.833 6.356 99.051 6.356 C 100.877 6.356 102.313 6.932 103.358 8.084 C 104.411 9.236 104.937 10.869 104.937 12.983 L 104.937 14.44 L 96.434 14.44 C 96.549 15.312 96.895 16.011 97.471 16.538 C 98.055 17.064 98.791 17.327 99.68 17.327 C 101.054 17.327 102.128 16.83 102.901 15.834 L 104.653 17.796 C 104.119 18.553 103.395 19.146 102.481 19.573 C 101.568 19.993 100.556 20.203 99.446 20.203 Z  M 99.038 9.244 C 98.331 9.244 97.755 9.482 97.31 9.96 C 96.874 10.437 96.595 11.12 96.471 12.008 L 101.432 12.008 L 101.432 11.724 C 101.416 10.935 101.202 10.326 100.791 9.898 C 100.379 9.462 99.795 9.244 99.038 9.244 Z " fill="rgb(255,255,255)"/><path d=" M 110.604 6.603 L 110.715 8.146 C 111.669 6.953 112.949 6.356 114.553 6.356 C 115.968 6.356 117.021 6.772 117.712 7.603 C 118.404 8.433 118.757 9.676 118.774 11.33 L 118.774 19.956 L 115.207 19.956 L 115.207 11.416 C 115.207 10.659 115.043 10.112 114.714 9.775 C 114.384 9.429 113.837 9.256 113.072 9.256 C 112.068 9.256 111.316 9.684 110.814 10.54 L 110.814 19.956 L 107.247 19.956 L 107.247 6.603 L 110.604 6.603 Z " fill="rgb(255,255,255)"/><path d=" M 11.226 5.887 L 6.113 11 L 11.226 16.113 L 16.339 11 L 11.226 5.887 Z  M 1.226 11 L 11.226 21 L 21.226 11 L 11.226 1 L 1.226 11 Z " fill-rule="evenodd" fill="rgb(255,255,255)"/></g></svg>